<svg xmlns="http://www.w3.org/2000/svg" viewBox="0 0 181.34 66"><defs><style>.cls-1{fill:#333;}.cls-2{fill:#504013;}.cls-2,.cls-3,.cls-4,.cls-5,.cls-6{fill-rule:evenodd;}.cls-3{fill:#f7b500;}.cls-4{fill:#a98010;}.cls-5{fill:#7c5e0d;}.cls-6{fill:#ffc629;}</style></defs><g id="Layer_2" data-name="Layer 2"><g id="Layer_1-2" data-name="Layer 1"><path class="cls-1" d="M53.43,39.52H45.74L44.56,43H40.22L47.12,23h5.11L59,43h-4.5Zm-1.08-3.36L49.59,27.9,46.8,36.16Z"/><path class="cls-1" d="M72.58,39.57h6.68V43H68.49V23h4.09Z"/><path class="cls-1" d="M93.41,36.11V43H89.32V23h6.37a8,8,0,0,1,5.49,1.7,5.93,5.93,0,0,1,1.89,4.73,7.36,7.36,0,0,1-.61,3,5.84,5.84,0,0,1-1.72,2.25A7.46,7.46,0,0,1,96,36.11Zm0-3.37h1.75a4.84,4.84,0,0,0,2-.34,2.82,2.82,0,0,0,1.79-2.8,2.89,2.89,0,0,0-1.58-2.75,4.48,4.48,0,0,0-2.06-.44H93.41Z"/><path class="cls-1" d="M123.23,39.52h-7.69L114.36,43H110L116.92,23H122L128.84,43h-4.5Zm-1.08-3.36-2.76-8.26-2.79,8.26Z"/><path class="cls-1" d="M151.57,37.51l2.48,2.82a11.1,11.1,0,0,1-2.8,2,10.47,10.47,0,0,1-4.6,1,9.17,9.17,0,0,1-7.16-3,9.94,9.94,0,0,1-2-3.33,11.58,11.58,0,0,1-.7-4,11.36,11.36,0,0,1,.9-4.49A9.75,9.75,0,0,1,140.2,25a9.43,9.43,0,0,1,6.52-2.34,10.48,10.48,0,0,1,4.84,1.11,11.52,11.52,0,0,1,2.68,2.05l-2.67,2.7a7,7,0,0,0-4.68-2.07,5.49,5.49,0,0,0-4.41,2A6.76,6.76,0,0,0,141,32.94a7.58,7.58,0,0,0,.55,2.91,5.67,5.67,0,0,0,1.55,2.22,6,6,0,0,0,4.06,1.5A5.63,5.63,0,0,0,151.57,37.51Z"/><path class="cls-1" d="M175.73,39.52H168L166.86,43h-4.34L169.41,23h5.12L181.34,43h-4.5Zm-1.09-3.36-2.76-8.26-2.79,8.26Z"/><polygon class="cls-2" points="18.53 10.76 23.15 18.74 23.2 18.66 23.2 6.28 12.3 0 18.53 10.76"/><polygon class="cls-3" points="18.53 10.76 17.79 16.22 17.88 27.84 23.15 18.74 18.53 10.76"/><polygon class="cls-4" points="17.88 27.84 18.53 10.76 12.78 22.74 17.88 27.84"/><polygon class="cls-5" points="0 21.21 7.71 25.66 12.78 22.74 18.53 10.76 0 21.21"/><polygon class="cls-6" points="3.77 14.7 0 21.21 18.53 10.76 3.77 14.7"/><polygon class="cls-4" points="17.88 27.84 32.5 34.9 23.15 18.74 17.88 27.84"/><polygon class="cls-3" points="8.76 43.6 32.5 34.9 17.88 27.84 8.76 43.6"/><polygon class="cls-4" points="8.76 43.6 14.77 66 27.69 43.21 32.5 34.9 8.76 43.6"/></g></g></svg>