<?xml version="1.0" encoding="utf-8" standalone="yes"?>
<!DOCTYPE svg PUBLIC "-//W3C//DTD SVG 1.1//EN" "http://www.w3.org/Graphics/SVG/1.1/DTD/svg11.dtd">
<svg xmlns="http://www.w3.org/2000/svg" xmlns:xlink="http://www.w3.org/1999/xlink" xmlns:dc="http://purl.org/dc/elements/1.1/" xmlns:cc="http://web.resource.org/cc/" xmlns:rdf="http://www.w3.org/1999/02/22-rdf-syntax-ns#" xmlns:sodipodi="http://sodipodi.sourceforge.net/DTD/sodipodi-0.dtd" xmlns:inkscape="http://www.inkscape.org/namespaces/inkscape" version="1.1" baseProfile="full" width="40px" height="50px" viewBox="0 0 40 50" preserveAspectRatio="xMidYMid meet" id="svg_document" style="zoom: 1;"><!-- Created with macSVG - https://macsvg.org/ - https://github.com/dsward2/macsvg/ --><svg xmlns="http://www.w3.org/2000/svg" viewBox="0 0 40 70" id="svg1"><defs><style>.cls-1{fill:#333;}.cls-2{fill:#504013;}.cls-2,.cls-3,.cls-4,.cls-5,.cls-6{fill-rule:evenodd;}.cls-3{fill:#f7b500;}.cls-4{fill:#a98010;}.cls-5{fill:#7c5e0d;}.cls-6{fill:#ffc629;}</style></defs><g id="Layer_2" data-name="Layer 2"><g id="Layer_1-2" data-name="Layer 1"><polygon class="cls-2" points="18.53 10.76 23.15 18.74 23.2 18.66 23.2 6.28 12.3 0 18.53 10.76"></polygon><polygon class="cls-3" points="18.53 10.76 17.79 16.22 17.88 27.84 23.15 18.74 18.53 10.76"></polygon><polygon class="cls-4" points="17.88 27.84 18.53 10.76 12.78 22.74 17.88 27.84"></polygon><polygon class="cls-5" points="0 21.21 7.71 25.66 12.78 22.74 18.53 10.76 0 21.21"></polygon><polygon class="cls-6" points="3.77 14.7 0 21.21 18.53 10.76 3.77 14.7"></polygon><polygon class="cls-4" points="17.88 27.84 32.5 34.9 23.15 18.74 17.88 27.84"></polygon><polygon class="cls-3" points="8.76 43.6 32.5 34.9 17.88 27.84 8.76 43.6"></polygon><polygon class="cls-4" points="8.76 43.6 14.77 66 27.69 43.21 32.5 34.9 8.76 43.6"></polygon></g></g></svg></svg>